<svg xmlns="http://www.w3.org/2000/svg" width="1280" height="720" viewBox="0 0 1280 720">
  <rect width="1280" height="720" fill="#0f172a"/>
  <rect x="0" y="0" width="220" height="720" fill="#1e293b"/>
  <rect x="16" y="20" width="120" height="28" rx="4" fill="#6366f1"/>
  <text x="76" y="39" font-family="Arial, sans-serif" font-size="13" font-weight="bold" fill="white" text-anchor="middle">AutoMail Pro</text>
  <text x="44" y="95" font-family="Arial, sans-serif" font-size="13" fill="#94a3b8">Dashboard</text>
  <rect x="12" y="116" width="196" height="36" rx="6" fill="#334155"/>
  <text x="44" y="139" font-family="Arial, sans-serif" font-size="13" fill="white">Campaigns</text>

  <!-- Breadcrumb -->
  <text x="252" y="42" font-family="Arial, sans-serif" font-size="13" fill="#64748b">Campaigns /</text>
  <text x="336" y="42" font-family="Arial, sans-serif" font-size="13" fill="white">Q3 SaaS Outreach</text>

  <text x="252" y="76" font-family="Arial, sans-serif" font-size="22" font-weight="bold" fill="white">Q3 SaaS Outreach</text>
  <rect x="376" y="56" width="88" height="24" rx="12" fill="#16a34a" fill-opacity="0.2"/>
  <text x="420" y="73" font-family="Arial, sans-serif" font-size="12" fill="#22c55e" text-anchor="middle">Completed</text>
  <text x="252" y="98" font-family="Arial, sans-serif" font-size="13" fill="#64748b">leads-saas-q3.csv · 85 leads · Jun 18, 2026</text>

  <!-- Tabs -->
  <rect x="252" y="116" width="988" height="2" fill="#1e293b"/>
  <text x="264" y="144" font-family="Arial, sans-serif" font-size="14" fill="white">Overview</text>
  <rect x="252" y="148" width="80" height="2" fill="#6366f1"/>
  <text x="380" y="144" font-family="Arial, sans-serif" font-size="14" fill="#64748b">Leads</text>
  <text x="476" y="144" font-family="Arial, sans-serif" font-size="14" fill="#64748b">Emails</text>
  <text x="576" y="144" font-family="Arial, sans-serif" font-size="14" fill="#64748b">Metrics</text>

  <!-- Lead status breakdown -->
  <text x="252" y="184" font-family="Arial, sans-serif" font-size="15" font-weight="bold" fill="white">Lead Status</text>

  <!-- Status pills -->
  <rect x="252" y="196" width="150" height="60" rx="8" fill="#1e293b"/>
  <text x="327" y="220" font-family="Arial, sans-serif" font-size="11" fill="#94a3b8" text-anchor="middle">Sent</text>
  <text x="327" y="248" font-family="Arial, sans-serif" font-size="26" font-weight="bold" fill="#22c55e" text-anchor="middle">72</text>

  <rect x="412" y="196" width="150" height="60" rx="8" fill="#1e293b"/>
  <text x="487" y="220" font-family="Arial, sans-serif" font-size="11" fill="#94a3b8" text-anchor="middle">Opened</text>
  <text x="487" y="248" font-family="Arial, sans-serif" font-size="26" font-weight="bold" fill="#a78bfa" text-anchor="middle">32</text>

  <rect x="572" y="196" width="150" height="60" rx="8" fill="#1e293b"/>
  <text x="647" y="220" font-family="Arial, sans-serif" font-size="11" fill="#94a3b8" text-anchor="middle">Rejected</text>
  <text x="647" y="248" font-family="Arial, sans-serif" font-size="26" font-weight="bold" fill="#f87171" text-anchor="middle">8</text>

  <rect x="732" y="196" width="150" height="60" rx="8" fill="#1e293b"/>
  <text x="807" y="220" font-family="Arial, sans-serif" font-size="11" fill="#94a3b8" text-anchor="middle">Failed</text>
  <text x="807" y="248" font-family="Arial, sans-serif" font-size="26" font-weight="bold" fill="#64748b" text-anchor="middle">5</text>

  <!-- Pipeline steps visualization -->
  <text x="252" y="300" font-family="Arial, sans-serif" font-size="15" font-weight="bold" fill="white">Pipeline Progress</text>
  <!-- Steps -->
  <circle cx="290" cy="336" r="20" fill="#22c55e"/>
  <text x="290" y="341" font-family="Arial, sans-serif" font-size="11" fill="white" text-anchor="middle">✓</text>
  <text x="290" y="370" font-family="Arial, sans-serif" font-size="11" fill="#94a3b8" text-anchor="middle">Uploaded</text>
  <rect x="310" y="334" width="100" height="4" rx="2" fill="#22c55e"/>

  <circle cx="430" cy="336" r="20" fill="#22c55e"/>
  <text x="430" y="341" font-family="Arial, sans-serif" font-size="11" fill="white" text-anchor="middle">✓</text>
  <text x="430" y="370" font-family="Arial, sans-serif" font-size="11" fill="#94a3b8" text-anchor="middle">Scraped</text>
  <rect x="450" y="334" width="100" height="4" rx="2" fill="#22c55e"/>

  <circle cx="570" cy="336" r="20" fill="#22c55e"/>
  <text x="570" y="341" font-family="Arial, sans-serif" font-size="11" fill="white" text-anchor="middle">✓</text>
  <text x="570" y="370" font-family="Arial, sans-serif" font-size="11" fill="#94a3b8" text-anchor="middle">Generated</text>
  <rect x="590" y="334" width="100" height="4" rx="2" fill="#22c55e"/>

  <circle cx="710" cy="336" r="20" fill="#22c55e"/>
  <text x="710" y="341" font-family="Arial, sans-serif" font-size="11" fill="white" text-anchor="middle">✓</text>
  <text x="710" y="370" font-family="Arial, sans-serif" font-size="11" fill="#94a3b8" text-anchor="middle">Reviewed</text>
  <rect x="730" y="334" width="100" height="4" rx="2" fill="#22c55e"/>

  <circle cx="850" cy="336" r="20" fill="#22c55e"/>
  <text x="850" y="341" font-family="Arial, sans-serif" font-size="11" fill="white" text-anchor="middle">✓</text>
  <text x="850" y="370" font-family="Arial, sans-serif" font-size="11" fill="#94a3b8" text-anchor="middle">Sent</text>

  <text x="640" y="704" font-family="Arial, sans-serif" font-size="11" fill="#334155" text-anchor="middle">AutoMail Pro — Campaign Detail Overview (placeholder screenshot)</text>
</svg>
