<svg xmlns="http://www.w3.org/2000/svg" width="1280" height="720" viewBox="0 0 1280 720">
  <!-- Deeper dark for "dark mode" screenshot -->
  <rect width="1280" height="720" fill="#09111e"/>
  <rect x="0" y="0" width="220" height="720" fill="#111827"/>
  <rect x="16" y="20" width="120" height="28" rx="4" fill="#818cf8"/>
  <text x="76" y="39" font-family="Arial, sans-serif" font-size="13" font-weight="bold" fill="white" text-anchor="middle">AutoMail Pro</text>

  <text x="44" y="95" font-family="Arial, sans-serif" font-size="13" fill="#6b7280">Dashboard</text>
  <text x="44" y="139" font-family="Arial, sans-serif" font-size="13" fill="#6b7280">Campaigns</text>
  <rect x="12" y="160" width="196" height="36" rx="6" fill="#1f2937"/>
  <text x="44" y="183" font-family="Arial, sans-serif" font-size="13" fill="white">Settings</text>

  <!-- Settings page content -->
  <text x="252" y="52" font-family="Arial, sans-serif" font-size="22" font-weight="bold" fill="white">Settings</text>

  <!-- Sub-nav tabs -->
  <text x="264" y="100" font-family="Arial, sans-serif" font-size="14" fill="white">Account</text>
  <rect x="252" y="104" width="72" height="2" fill="#818cf8"/>
  <text x="380" y="100" font-family="Arial, sans-serif" font-size="14" fill="#6b7280">Gmail</text>

  <!-- Account settings card -->
  <rect x="252" y="120" width="600" height="400" rx="10" fill="#111827"/>
  <text x="276" y="156" font-family="Arial, sans-serif" font-size="16" font-weight="bold" fill="white">Sender Profile</text>
  <text x="276" y="178" font-family="Arial, sans-serif" font-size="13" fill="#6b7280">Used in AI-generated email signatures</text>

  <!-- Avatar -->
  <circle cx="840" cy="316" r="52" fill="#1f2937"/>
  <text x="840" y="328" font-family="Arial, sans-serif" font-size="32" font-weight="bold" fill="#818cf8" text-anchor="middle">JD</text>

  <!-- Form fields -->
  <text x="276" y="220" font-family="Arial, sans-serif" font-size="13" fill="#d1d5db">Full Name</text>
  <rect x="276" y="228" width="480" height="40" rx="6" fill="#1f2937"/>
  <text x="296" y="253" font-family="Arial, sans-serif" font-size="14" fill="white">Jorge Decuir</text>
  <rect x="276" y="228" width="480" height="40" rx="6" fill="none" stroke="#818cf8" stroke-width="1.5"/>

  <text x="276" y="300" font-family="Arial, sans-serif" font-size="13" fill="#d1d5db">Company</text>
  <rect x="276" y="308" width="480" height="40" rx="6" fill="#1f2937"/>
  <text x="296" y="333" font-family="Arial, sans-serif" font-size="14" fill="white">Decuir Solutions</text>

  <text x="276" y="380" font-family="Arial, sans-serif" font-size="13" fill="#d1d5db">Email</text>
  <rect x="276" y="388" width="480" height="40" rx="6" fill="#1f2937"/>
  <text x="296" y="413" font-family="Arial, sans-serif" font-size="14" fill="#6b7280">jdecuirm@gmail.com</text>

  <rect x="276" y="452" width="120" height="36" rx="6" fill="#818cf8"/>
  <text x="336" y="475" font-family="Arial, sans-serif" font-size="14" font-weight="bold" fill="white" text-anchor="middle">Save Changes</text>

  <!-- Dark mode indicator label -->
  <text x="640" y="704" font-family="Arial, sans-serif" font-size="11" fill="#1f2937" text-anchor="middle">AutoMail Pro — Settings / Account (dark mode — placeholder screenshot)</text>
</svg>
